<svg id="d0a93ac0-ff3f-472e-a9b4-2835ebfc1b41" data-name="Layer 1" xmlns="http://www.w3.org/2000/svg" viewBox="0 0 512 512"><defs><style>.\36 228eb2c-1f69-457b-a109-e427fa0076fc{fill:#ff1a1a;}.a5ba4c39-02b4-465d-9edd-00241469a9ff{fill:#ff7676;}.\39 bb9ff99-54e9-489a-a6eb-c5244057730f{fill:#33363a;}.c26607b8-7c4f-4084-ad0a-8f131446e020{fill:#8de4ff;}.ec98b7ac-c745-45e1-96a9-1de4d5e424a0{fill:#0af;}</style></defs><title>bag</title><path class="6228eb2c-1f69-457b-a109-e427fa0076fc" d="M89,418.06a32.57,32.57,0,0,1-32.57,32.58h0a32.57,32.57,0,0,1-32.58-32.58v-94.5A32.58,32.58,0,0,1,56.45,291h0A32.58,32.58,0,0,1,89,323.56Z"/><path class="a5ba4c39-02b4-465d-9edd-00241469a9ff" d="M56.45,291a32.57,32.57,0,0,0-32.58,32.58V330A32.58,32.58,0,0,0,89,330v-6.41A32.57,32.57,0,0,0,56.45,291Z"/><path class="9bb9ff99-54e9-489a-a6eb-c5244057730f" d="M56.45,456.6A38.59,38.59,0,0,1,17.9,418.06v-94.5a38.55,38.55,0,1,1,77.1,0v94.5A38.59,38.59,0,0,1,56.45,456.6Zm0-159.64a26.63,26.63,0,0,0-26.6,26.61v94.49a26.6,26.6,0,1,0,53.2,0v-94.5A26.63,26.63,0,0,0,56.45,297Z"/><path class="6228eb2c-1f69-457b-a109-e427fa0076fc" d="M488.13,418.06a32.57,32.57,0,0,1-32.58,32.58h0A32.57,32.57,0,0,1,423,418.06v-94.5A32.58,32.58,0,0,1,455.55,291h0a32.58,32.58,0,0,1,32.58,32.58Z"/><path class="a5ba4c39-02b4-465d-9edd-00241469a9ff" d="M455.55,291A32.57,32.57,0,0,0,423,323.57V330a32.58,32.58,0,0,0,65.15,0v-6.41A32.57,32.57,0,0,0,455.55,291Z"/><path class="9bb9ff99-54e9-489a-a6eb-c5244057730f" d="M455.55,456.6A38.59,38.59,0,0,1,417,418.06v-94.5a38.55,38.55,0,0,1,77.1,0v94.5A38.59,38.59,0,0,1,455.55,456.6Zm0-159.64A26.63,26.63,0,0,0,429,323.57v94.49a26.6,26.6,0,1,0,53.2,0v-94.5A26.63,26.63,0,0,0,455.55,297Z"/><path class="c26607b8-7c4f-4084-ad0a-8f131446e020" d="M269.76,48.66H242.24c-98.63,0-178.87,80.25-178.87,178.88V433.92a68.79,68.79,0,0,0,68.79,68.8H379.83a68.8,68.8,0,0,0,68.8-68.8V227.54C448.63,128.91,368.39,48.66,269.76,48.66Z"/><path class="ec98b7ac-c745-45e1-96a9-1de4d5e424a0" d="M269.76,97.24H242.24c-98.63,0-178.87,80.25-178.87,178.88v157.8a68.79,68.79,0,0,0,68.79,68.8H379.83a68.8,68.8,0,0,0,68.8-68.8V276.12C448.63,177.5,368.39,97.24,269.76,97.24Z"/><path class="9bb9ff99-54e9-489a-a6eb-c5244057730f" d="M379.83,508.69H132.16A74.85,74.85,0,0,1,57.4,433.92V227.54c0-101.93,82.91-184.85,184.84-184.85h27.52c101.92,0,184.84,82.92,184.84,184.85V433.92A74.85,74.85,0,0,1,379.83,508.69ZM242.24,54.63c-95.34,0-172.9,77.56-172.9,172.91V433.92a62.89,62.89,0,0,0,62.82,62.82H379.83a62.9,62.9,0,0,0,62.83-62.82V227.54c0-95.34-77.57-172.91-172.91-172.91Z"/><path class="6228eb2c-1f69-457b-a109-e427fa0076fc" d="M384.06,387.68A58.34,58.34,0,0,1,325.73,446H186.27a58.34,58.34,0,0,1-58.33-58.34V343.93a58.33,58.33,0,0,1,58.33-58.32H325.73a58.32,58.32,0,0,1,58.32,58.32v43.75Z"/><path class="a5ba4c39-02b4-465d-9edd-00241469a9ff" d="M186.27,285.61a58.26,58.26,0,0,0-50.18,28.68A58.26,58.26,0,0,0,186.27,343H325.73a58.26,58.26,0,0,0,50.17-28.71,58.24,58.24,0,0,0-50.17-28.68Z"/><path class="9bb9ff99-54e9-489a-a6eb-c5244057730f" d="M325.73,452H186.27A64.38,64.38,0,0,1,122,387.68V343.93a64.37,64.37,0,0,1,64.3-64.29H325.73A64.37,64.37,0,0,1,390,343.93v43.75A64.38,64.38,0,0,1,325.73,452ZM186.27,291.58a52.41,52.41,0,0,0-52.36,52.35v43.75A52.42,52.42,0,0,0,186.27,440H325.73a52.41,52.41,0,0,0,52.35-52.36V343.93a52.4,52.4,0,0,0-52.35-52.35Z"/><path class="9bb9ff99-54e9-489a-a6eb-c5244057730f" d="M383.82,237.46a6,6,0,0,1-6-6A112.85,112.85,0,0,0,265.13,118.77H246.87A112.85,112.85,0,0,0,134.15,231.48a6,6,0,1,1-11.94,0A124.8,124.8,0,0,1,246.87,106.83h18.26A124.8,124.8,0,0,1,389.79,231.48,6,6,0,0,1,383.82,237.46Z"/><path class="9bb9ff99-54e9-489a-a6eb-c5244057730f" d="M384.93,276a9.31,9.31,0,0,1-9.29-9.3V256.17a9.29,9.29,0,0,1,18.58,0v10.49A9.31,9.31,0,0,1,384.93,276Z"/><path class="9bb9ff99-54e9-489a-a6eb-c5244057730f" d="M312.3,71.56a6,6,0,0,1-6-6,50.33,50.33,0,1,0-100.66,0,6,6,0,0,1-11.94,0,62.27,62.27,0,1,1,124.54,0A6,6,0,0,1,312.3,71.56Z"/><path class="9bb9ff99-54e9-489a-a6eb-c5244057730f" d="M149.17,414.34H133.25a6,6,0,1,1,0-11.95h15.92a6,6,0,0,1,0,11.95Z"/><path class="9bb9ff99-54e9-489a-a6eb-c5244057730f" d="M332.3,414.34H301.78a6,6,0,0,1,0-11.95H332.3a6,6,0,1,1,0,11.95Zm-61,0H240.74a6,6,0,0,1,0-11.95h30.52a6,6,0,0,1,0,11.95Zm-61,0H179.69a6,6,0,0,1,0-11.95h30.52a6,6,0,1,1,0,11.95Z"/><path class="9bb9ff99-54e9-489a-a6eb-c5244057730f" d="M378.75,414.34H362.83a6,6,0,0,1,0-11.95h15.92a6,6,0,1,1,0,11.95Z"/></svg>