<svg id="fed0d423-b76b-4258-9338-d6bb12fa0ae2" data-name="Layer 1" xmlns="http://www.w3.org/2000/svg" viewBox="0 0 512 512"><defs><style>.\39 6956ad5-3101-4436-8b31-1f55461dfe60{fill:#ff1a1a;}.\33 56d4fc7-31ee-44b3-9a16-d7fdbf7ef6de{fill:#fff;}</style></defs><title>pokeball_icon</title><circle class="96956ad5-3101-4436-8b31-1f55461dfe60" cx="256" cy="256" r="245.87"/><path class="356d4fc7-31ee-44b3-9a16-d7fdbf7ef6de" d="M10.13,256c0,135.8,110.08,245.87,245.87,245.87S501.87,391.8,501.87,256Z"/><path d="M256,507.85C117.13,507.85,4.15,394.87,4.15,256S117.13,4.15,256,4.15,507.85,117.13,507.85,256,394.87,507.85,256,507.85Zm0-491.74C123.73,16.11,16.11,123.72,16.11,256S123.73,495.89,256,495.89,495.89,388.27,495.89,256,388.27,16.11,256,16.11Z"/><path d="M501.87,262H10.13a6,6,0,0,1,0-12H501.87a6,6,0,1,1,0,12Z"/><circle class="356d4fc7-31ee-44b3-9a16-d7fdbf7ef6de" cx="256" cy="256" r="66.84"/><path d="M256,328.82a72.83,72.83,0,1,1,51.49-21.33A72.31,72.31,0,0,1,256,328.82Zm0-133.68A60.86,60.86,0,1,0,299,213,60.45,60.45,0,0,0,256,195.14Z"/><path class="356d4fc7-31ee-44b3-9a16-d7fdbf7ef6de" d="M278.74,278.74a32.15,32.15,0,1,1,0-45.47A32.18,32.18,0,0,1,278.74,278.74Z"/><path d="M256,294.12A38.12,38.12,0,1,1,283,283,37.91,37.91,0,0,1,256,294.12Zm0-64.28a26.17,26.17,0,1,0,18.51,7.66A26,26,0,0,0,256,229.84Z"/></svg>